# xmcd CD database file
# Copyright (C) 1993-1998 Ti Kan
# 
# Track frame offsets:
#     180
#     17642
#     32402
#     52167
#     67877
#     85790
#     108057
#     128595
#     145352
#     171512
#     187412
# 
# Disc length: 2668 seconds
# 
# Revision: 1
# Processed by: cddbd v1.4b41PL1 Copyright (c) Steve Scherf et al.
# Submitted via: DiscPlay 4.0.4
# 
DISCID=940a6a0b
DTITLE=Basscut - The Art Of War
DYEAR=1900
DGENRE=
TTITLE0=My Obsession
TTITLE1=Boys and Girls
TTITLE2=Say You Love Me
TTITLE3=My Inspiration
TTITLE4=Footsteps In The Night
TTITLE5=Mr. Z
TTITLE6=Someday In August
TTITLE7=Runaway Child
TTITLE8=Sylvester
TTITLE9=I'm Not In Love
TTITLE10=Over And Over
EXTD=
EXTT0=
EXTT1=
EXTT2=
EXTT3=
EXTT4=
EXTT5=
EXTT6=
EXTT7=
EXTT8=
EXTT9=
EXTT10=
PLAYORDER=
